<svg xmlns="http://www.w3.org/2000/svg" xmlns:xlink="http://www.w3.org/1999/xlink" width="20pt" height="20pt" version="1.1" viewBox="0 0 20 20"><g id="surface1"><path style="stroke:none;fill-rule:nonzero;fill:#000;fill-opacity:1" d="M 0.726563 0.800781 C 0.710938 0.804688 0.699219 0.808594 0.6875 0.8125 C 0.296875 0.867188 0 1.195313 0 1.601563 C 0 2.042969 0.359375 2.398438 0.800781 2.398438 C 1.242188 2.398438 1.601563 2.042969 1.601563 1.601563 L 3.460938 1.601563 C 3.960938 1.601563 4.21875 1.703125 4.414063 1.875 C 4.601563 2.046875 4.753906 2.332031 4.886719 2.773438 L 8.085938 15.6875 C 8.207031 16.144531 8.328125 16.617188 8.664063 17 C 8.800781 17.160156 8.976563 17.289063 9.1875 17.386719 C 8.953125 17.664063 8.800781 18.011719 8.800781 18.398438 C 8.800781 19.28125 9.519531 20 10.398438 20 C 11.28125 20 12 19.28125 12 18.398438 C 12 18.105469 11.914063 17.835938 11.773438 17.601563 L 14.226563 17.601563 C 14.085938 17.835938 14 18.105469 14 18.398438 C 14 19.28125 14.71875 20 15.601563 20 C 16.480469 20 17.199219 19.28125 17.199219 18.398438 C 17.199219 17.988281 17.03125 17.621094 16.773438 17.335938 C 16.820313 17.214844 16.800781 17.078125 16.726563 16.972656 C 16.652344 16.863281 16.53125 16.800781 16.398438 16.800781 L 10.289063 16.800781 C 9.671875 16.800781 9.417969 16.667969 9.25 16.476563 C 9.082031 16.28125 8.980469 15.945313 8.863281 15.5 L 8.863281 15.488281 L 8.585938 14.398438 L 15.925781 14.398438 C 16.09375 14.398438 16.242188 14.296875 16.300781 14.136719 L 19.175781 6.539063 C 19.222656 6.414063 19.203125 6.277344 19.128906 6.171875 C 19.054688 6.0625 18.929688 6 18.800781 6 L 6.511719 6 L 5.664063 2.585938 C 5.664063 2.578125 5.664063 2.570313 5.664063 2.5625 C 5.507813 2.046875 5.3125 1.601563 4.949219 1.273438 C 4.589844 0.949219 4.082031 0.800781 3.460938 0.800781 L 0.800781 0.800781 C 0.789063 0.800781 0.773438 0.800781 0.761719 0.800781 C 0.75 0.800781 0.738281 0.800781 0.726563 0.800781 Z M 6.710938 6.800781 L 18.226563 6.800781 L 15.648438 13.601563 L 8.398438 13.601563 Z M 10.398438 17.601563 C 10.847656 17.601563 11.199219 17.953125 11.199219 18.398438 C 11.199219 18.847656 10.847656 19.199219 10.398438 19.199219 C 9.953125 19.199219 9.601563 18.847656 9.601563 18.398438 C 9.601563 17.953125 9.953125 17.601563 10.398438 17.601563 Z M 15.601563 17.601563 C 16.046875 17.601563 16.398438 17.953125 16.398438 18.398438 C 16.398438 18.847656 16.046875 19.199219 15.601563 19.199219 C 15.152344 19.199219 14.800781 18.847656 14.800781 18.398438 C 14.800781 17.953125 15.152344 17.601563 15.601563 17.601563 Z"/></g></svg>